<?xml version="1.0" encoding="UTF-8" standalone="no"?>
<svg
   xmlns:dc="http://purl.org/dc/elements/1.1/"
   xmlns:cc="http://creativecommons.org/ns#"
   xmlns:rdf="http://www.w3.org/1999/02/22-rdf-syntax-ns#"
   xmlns:svg="http://www.w3.org/2000/svg"
   xmlns="http://www.w3.org/2000/svg"
   xmlns:xlink="http://www.w3.org/1999/xlink"
   xmlns:sodipodi="http://sodipodi.sourceforge.net/DTD/sodipodi-0.dtd"
   xmlns:inkscape="http://www.inkscape.org/namespaces/inkscape"
   width="441.02322"
   height="339.69067"
   viewBox="0 0 352.81858 271.75254"
   version="1.1"
   id="svg3396"
   inkscape:version="0.48.4 r9939"
   sodipodi:docname="logo.svg">
  <metadata
     id="metadata3588">
    <rdf:RDF>
      <cc:Work
         rdf:about="">
        <dc:format>image/svg+xml</dc:format>
        <dc:type
           rdf:resource="http://purl.org/dc/dcmitype/StillImage" />
        <dc:title />
      </cc:Work>
    </rdf:RDF>
  </metadata>
  <defs
     id="defs3586">
    <linearGradient
       inkscape:collect="always"
       id="linearGradient3257">
      <stop
         style="stop-color:#30b54b;stop-opacity:1"
         offset="0"
         id="stop3259" />
      <stop
         style="stop-color:#67bf67;stop-opacity:1"
         offset="1"
         id="stop3261" />
    </linearGradient>
    <linearGradient
       inkscape:collect="always"
       id="linearGradient3242">
      <stop
         style="stop-color:#0c7e3e;stop-opacity:1"
         offset="0"
         id="stop3244" />
      <stop
         style="stop-color:#699c6c;stop-opacity:1"
         offset="1"
         id="stop3246" />
    </linearGradient>
    <linearGradient
       inkscape:collect="always"
       id="linearGradient3227">
      <stop
         style="stop-color:#2fb54a;stop-opacity:1"
         offset="0"
         id="stop3229" />
      <stop
         style="stop-color:#6ac16b;stop-opacity:1"
         offset="1"
         id="stop3231" />
    </linearGradient>
    <linearGradient
       id="linearGradient3188"
       inkscape:collect="always">
      <stop
         id="stop3190"
         offset="0"
         style="stop-color:#a52788;stop-opacity:1" />
      <stop
         id="stop3192"
         offset="1"
         style="stop-color:#be3c92;stop-opacity:1" />
    </linearGradient>
    <linearGradient
       id="linearGradient3161"
       inkscape:collect="always">
      <stop
         id="stop3163"
         offset="0"
         style="stop-color:#81d5ef;stop-opacity:1" />
      <stop
         id="stop3165"
         offset="1"
         style="stop-color:#b9e6f6;stop-opacity:1" />
    </linearGradient>
    <linearGradient
       inkscape:collect="always"
       id="linearGradient3151">
      <stop
         style="stop-color:#0a83a1;stop-opacity:1"
         offset="0"
         id="stop3153" />
      <stop
         style="stop-color:#135d71;stop-opacity:1"
         offset="1"
         id="stop3155" />
    </linearGradient>
    <linearGradient
       id="linearGradient3141"
       inkscape:collect="always">
      <stop
         id="stop3143"
         offset="0"
         style="stop-color:#0ca5c8;stop-opacity:1" />
      <stop
         id="stop3145"
         offset="1"
         style="stop-color:#99cbe0;stop-opacity:1" />
    </linearGradient>
    <linearGradient
       inkscape:collect="always"
       id="linearGradient3129">
      <stop
         style="stop-color:#e4e534;stop-opacity:1"
         offset="0"
         id="stop3131" />
      <stop
         style="stop-color:#ecee89;stop-opacity:1"
         offset="1"
         id="stop3133" />
    </linearGradient>
    <linearGradient
       inkscape:collect="always"
       id="linearGradient3120">
      <stop
         style="stop-color:#e4e534;stop-opacity:1"
         offset="0"
         id="stop3122" />
      <stop
         style="stop-color:#ecee8b;stop-opacity:1"
         offset="1"
         id="stop3124" />
    </linearGradient>
    <linearGradient
       inkscape:collect="always"
       id="linearGradient3111">
      <stop
         style="stop-color:#c32929;stop-opacity:1"
         offset="0"
         id="stop3113" />
      <stop
         style="stop-color:#da534e;stop-opacity:1"
         offset="1"
         id="stop3115" />
    </linearGradient>
    <linearGradient
       id="linearGradient3103">
      <stop
         style="stop-color:#c32929;stop-opacity:1;"
         offset="0"
         id="stop3105" />
      <stop
         style="stop-color:#c32929;stop-opacity:1;"
         offset="1"
         id="stop3107" />
    </linearGradient>
    <linearGradient
       id="linearGradient3095">
      <stop
         style="stop-color:#b3b3b3;stop-opacity:1;"
         offset="0"
         id="stop3097" />
      <stop
         style="stop-color:#b3b3b3;stop-opacity:0;"
         offset="1"
         id="stop3099" />
    </linearGradient>
    <linearGradient
       inkscape:collect="always"
       xlink:href="#linearGradient3111"
       id="linearGradient3117"
       x1="-29.108305"
       y1="61.992691"
       x2="-56.41626"
       y2="61.992691"
       gradientUnits="userSpaceOnUse"
       gradientTransform="translate(56.403595,3.457665)" />
    <linearGradient
       inkscape:collect="always"
       xlink:href="#linearGradient3120"
       id="linearGradient3126"
       x1="438.52393"
       y1="47.1339"
       x2="326.41931"
       y2="47.1339"
       gradientUnits="userSpaceOnUse" />
    <linearGradient
       inkscape:collect="always"
       xlink:href="#linearGradient3129"
       id="linearGradient3135"
       x1="439.14639"
       y1="105.0228"
       x2="326.49069"
       y2="105.0228"
       gradientUnits="userSpaceOnUse" />
    <linearGradient
       inkscape:collect="always"
       xlink:href="#linearGradient3141"
       id="linearGradient3139"
       gradientUnits="userSpaceOnUse"
       gradientTransform="matrix(1.0296669,0,0,1.0889744,60.383627,148.32665)"
       x1="-30.593803"
       y1="44.291744"
       x2="-56.429497"
       y2="44.291744" />
    <linearGradient
       inkscape:collect="always"
       xlink:href="#linearGradient3151"
       id="linearGradient3149"
       gradientUnits="userSpaceOnUse"
       gradientTransform="matrix(1.0340159,0,0,0.84782564,-112.21488,138.2378)"
       x1="-43.156567"
       y1="113.36453"
       x2="-41.478733"
       y2="-6.9734106" />
    <linearGradient
       inkscape:collect="always"
       xlink:href="#linearGradient3161"
       id="linearGradient3159"
       gradientUnits="userSpaceOnUse"
       gradientTransform="matrix(1.0340159,0,0,0.84782564,-135.94721,-104.72516)"
       x1="-56.010876"
       y1="50.761463"
       x2="-28.741835"
       y2="47.642143" />
    <linearGradient
       inkscape:collect="always"
       xlink:href="#linearGradient3111"
       id="linearGradient3169"
       gradientUnits="userSpaceOnUse"
       gradientTransform="matrix(1.0626178,0,0,1.0869747,173.09348,148.63667)"
       x1="-29.108305"
       y1="61.992691"
       x2="-56.41626"
       y2="61.992691" />
    <linearGradient
       inkscape:collect="always"
       xlink:href="#linearGradient3188"
       id="linearGradient3186"
       gradientUnits="userSpaceOnUse"
       gradientTransform="matrix(1.0626178,0,0,1.0869747,219.14904,147.73504)"
       x1="-29.108305"
       y1="61.992691"
       x2="-56.41626"
       y2="61.992691" />
    <linearGradient
       inkscape:collect="always"
       xlink:href="#linearGradient3188"
       id="linearGradient3214"
       gradientUnits="userSpaceOnUse"
       gradientTransform="matrix(0,-1.3421121,0.67706397,0,236.92161,143.13446)"
       x1="-87.376328"
       y1="113.3448"
       x2="-87.376328"
       y2="61.98801" />
    <linearGradient
       inkscape:collect="always"
       xlink:href="#linearGradient3227"
       id="linearGradient3233"
       x1="411.44687"
       y1="226.40273"
       x2="411.44687"
       y2="179.53125"
       gradientUnits="userSpaceOnUse" />
    <linearGradient
       inkscape:collect="always"
       xlink:href="#linearGradient3242"
       id="linearGradient3248"
       x1="397.4415"
       y1="339.06821"
       x2="397.4415"
       y2="243.81203"
       gradientUnits="userSpaceOnUse" />
    <linearGradient
       inkscape:collect="always"
       xlink:href="#linearGradient3257"
       id="linearGradient3263"
       x1="364.76227"
       y1="339.06821"
       x2="364.76227"
       y2="292.4057"
       gradientUnits="userSpaceOnUse" />
  </defs>
  <sodipodi:namedview
     pagecolor="#ffffff"
     bordercolor="#666666"
     borderopacity="1"
     objecttolerance="10"
     gridtolerance="10"
     guidetolerance="10"
     inkscape:pageopacity="0"
     inkscape:pageshadow="2"
     inkscape:window-width="1366"
     inkscape:window-height="744"
     id="namedview3584"
     showgrid="false"
     inkscape:zoom="6.8466792"
     inkscape:cx="384.67954"
     inkscape:cy="24.676207"
     inkscape:window-x="0"
     inkscape:window-y="24"
     inkscape:window-maximized="1"
     inkscape:current-layer="svg3396"
     fit-margin-top="0"
     fit-margin-left="0"
     fit-margin-right="0"
     fit-margin-bottom="0"
     inkscape:snap-bbox="true"
     inkscape:bbox-nodes="true"
     inkscape:bbox-paths="true"
     inkscape:snap-bbox-edge-midpoints="true"
     inkscape:snap-bbox-midpoints="true" />
  <path
     style="fill:url(#linearGradient3126);fill-opacity:1"
     d="M 383.96875 0 C 379.47959 0.048779296 374.97031 0.3609375 370.53125 0.65625 C 367.49375 1.19375 364.56875 2.08125 361.59375 2.84375 C 354.79375 4.10625 348.96875 7.86875 343.46875 11.84375 C 335.70625 17.14375 330.50625 25.66875 327.96875 34.59375 C 326.35625 43.56875 325.93125 52.875 327.03125 61.9375 C 329.20625 65.5 331.89375 69.15625 335.96875 70.65625 C 339.84375 72.00625 344.05625 71.71875 348.09375 71.59375 C 353.29375 70.34375 357.10625 66.45625 360.09375 62.21875 C 360.18125 56.61875 359.6875 50.8875 361.3125 45.4375 C 363.0375 39.9125 367.3875 35.675 372.0625 32.5 C 377.575 30.7125 383.5125 30.4 389.25 31.0625 C 394.8 32.625 400.33125 35.64375 403.21875 40.84375 C 407.43125 47.55625 406.05625 55.76875 406.34375 63.28125 C 410.89375 67.65625 416.20625 72.49375 423.03125 71.90625 C 429.86875 72.56875 435.30625 67.9625 439.65625 63.3125 C 439.55625 50.3125 441.90625 36.01875 434.59375 24.40625 C 428.59375 13.61875 417.71875 6.35625 406.03125 2.96875 C 398.89844 0.5390625 391.45068 -0.081298827 383.96875 0 z M 341.53125 56.65625 C 343.25625 57.03125 344.98125 57.4375 346.71875 57.875 C 346.50625 59.7375 346.2875 61.60625 346.0625 63.46875 C 344.3625 63.35625 342.69375 63.20625 341.03125 62.90625 C 339.33125 60.96875 340.84375 58.65625 341.53125 56.65625 z "
     transform="scale(0.8,0.8)"
     id="path3400" />
  <path
     d="m 43.035231,8.3671363 c 3.62,-5.28 10.8,-8.68000001 17.05,-6.32 4.75,1.58 7.14,6.3 10.1,9.9399997 13.22,17.16 26.22,34.47 39.669999,51.45 8.53,12.14 18.16,23.48 26.72,35.6 0.62,3.940004 0.32,8.380004 -2.28,11.600004 -3.14,3.74 -7.88,6.51 -12.91,5.9 -4.97,0.16 -8.58,-3.75 -11.36,-7.36 C 96.125231,90.797136 82.025231,72.587136 67.995231,54.327136 c -6.43,-8.9 -13.37,-17.4 -19.92,-26.2 -2.1,-2.82 -4.47,-5.43 -6.99,-7.88 -0.11,-4.01 -0.42,-8.4 1.95,-11.8799997 z"
     id="path3408"
     inkscape:connector-curvature="0"
     style="fill:#e93a96" />
  <path
     d="m 110.06523,12.687136 c 0.19,-5.2699997 4.39,-9.8299997 9.48,-10.8799997 7.39,-2.14000001 16.92,2.54 17.08,10.8899997 0.07,28.78 0.15,57.56 -0.05,86.34 -8.56,-12.12 -18.19,-23.46 -26.72,-35.6 0.4,-16.91 -0.01,-33.84 0.21,-50.75 z"
     id="path3410"
     inkscape:connector-curvature="0"
     style="fill:#9a1d57" />
  <path
     d="m 153.95523,9.3371363 c 3.87,-6.25 12.87,-9.49000001 19.41,-5.5 4.01,3.02 6.51,7.5099997 9.64,11.3399997 12.72,16.29 25.01,32.9 37.8,49.12 8.79,11.77 17.68,23.48 26.88,34.93 0.77,4.450004 0.19,9.470004 -2.88,12.990004 -3.9,4.06 -10.04,6.49 -15.58,4.58 -4.87,-1.68 -7.7,-6.28 -10.69,-10.16 -13.24,-17.360004 -26.57,-34.640004 -39.82,-52.000004 -8.76,-11.47 -17.36,-23.07 -26.48,-34.26 -0.63,-3.72 -0.22,-7.75 1.72,-11.0399997 z"
     id="path3412"
     inkscape:connector-curvature="0"
     style="fill:#e93a96" />
  <path
     d="m 220.94523,14.727136 c -0.24,-5.5599997 3.89,-11.0599997 9.42,-12.0699997 5.36,-1 12.08,-0.24 15.25,4.77 2.88,3.8599997 2.22,8.8299997 2.25,13.3399997 -0.14,26.15 0.22,52.31 -0.18,78.46 -9.2,-11.45 -18.09,-23.16 -26.88,-34.93 0.32,-16.52 0.06,-33.04 0.14,-49.57 z"
     id="path3416"
     inkscape:connector-curvature="0"
     style="fill:#9a1d56" />
  <path
     d="m 52.975231,13.347136 c 1.45,-0.09 2.91,-0.17 4.37,-0.25 0.3,1.23 0.59,2.47 0.87,3.7 -0.72,0.43 -2.15,1.27 -2.86,1.7 -0.66,-0.28 -1.97,-0.85 -2.63,-1.13 0.07,-1.34 0.16,-2.68 0.25,-4.02 z"
     id="path3424"
     inkscape:connector-curvature="0"
     style="fill:#0b0a0b" />
  <path
     d="m 163.71523,14.197136 c 1.68,-0.08 3.36,-0.14 5.04,-0.18 0.35,1.99 -0.41,3.8 -1.45,5.45 -1.07,-0.18 -2.13,-0.35 -3.18,-0.51 -0.16,-1.59 -0.29,-3.17 -0.41,-4.76 z"
     id="path3426"
     inkscape:connector-curvature="0"
     style="fill:#0e0610" />
  <path
     d="m 41.085231,20.247136 c 2.52,2.45 4.89,5.06 6.99,7.88 6.55,8.8 13.49,17.3 19.92,26.2 -0.24,16.82 -0.04,33.66 -0.11,50.490004 -0.03,4.13 -2.16,8.45 -5.95,10.37 -5.92,3 -14.48,2.37 -18.5,-3.41 -1.95,-2.55 -2.49,-5.85 -2.39,-8.98 0.06,-27.520004 -0.03,-55.030004 0.04,-82.550004 z"
     id="path3430"
     inkscape:connector-curvature="0"
     style="fill:#9a1d56" />
  <path
     d="m 152.23523,20.377136 c 9.12,11.19 17.72,22.79 26.48,34.26 0.07,16.73 -0.03,33.45 0.05,50.180004 0.05,2.33 -0.27,4.75 -1.52,6.77 -4.06,7.09 -14.7,7.82 -20.82,3.16 -3.57,-2.81 -4.51,-7.66 -4.37,-11.96 0.16,-27.470004 -0.19,-54.940004 0.18,-82.410004 z"
     id="path3432"
     inkscape:connector-curvature="0"
     style="fill:#9a1d57" />
  <path
     d="m 272.81523,50.317136 c -1.36,-1.55 -0.14,-3.39 0.41,-4.99 1.38,0.3 2.77,0.62 4.16,0.97 -0.17,1.49 -0.35,2.98 -0.53,4.47 -1.36,-0.09 -2.71,-0.21 -4.04,-0.45 z"
     id="path3436"
     inkscape:connector-curvature="0"
     style="fill:#070807" />
  <path
     d="m 335.88523,46.537136 c 0.63,-0.33 1.88,-0.99 2.5,-1.32 0.7,0.4 2.11,1.21 2.81,1.61 -0.22,1.25 -0.57,2.45 -1.07,3.61 -1.4,0.15 -2.81,0.04 -4.2,-0.03 -0.02,-1.29 -0.03,-2.58 -0.04,-3.87 z"
     id="path3438"
     inkscape:connector-curvature="0"
     style="fill:#08090a" />
  <path
     d="m 261.63523,49.547136 c 1.74,2.85 3.89,5.78 7.15,6.98 3.1,1.08 6.45,0.85 9.68,0.75 4.16,-1 7.22,-4.1 9.61,-7.49 -0.08,6.69 -0.14,13.38 -0.03,20.07 -1.69,-3.05 -3.95,-6.05 -7.25,-7.45 -3.67,-1.59 -7.83,-1.17 -11.59,-0.17 -3.27,1.22 -5.58,4.02 -7.57,6.75 -0.03,-6.48 -0.02,-12.96 0,-19.44 z"
     id="path3440"
     inkscape:connector-curvature="0"
     style="fill:#908c32" />
  <path
     d="m 325.08523,50.627136 c 3.64,3.5 7.87,7.36 13.33,6.89 5.47,0.53 9.84,-3.14 13.32,-6.86 -0.1,6.09 0.08,12.18 -0.11,18.28 -3.01,-4.83 -8.36,-8.3 -14.21,-7.56 -5.25,-0.09 -9.09,3.8 -12.31,7.42 0.02,-6.05 0.01,-12.11 -0.02,-18.17 z"
     id="path3442"
     inkscape:connector-curvature="0"
     style="fill:#918c31" />
  <path
     style="fill:url(#linearGradient3135);fill-opacity:1"
     d="M 423.125 76.59375 C 422.67341 76.611319 422.23828 76.660938 421.78125 76.71875 C 415.21875 76.60625 410.4 81.475 406.375 86 C 406.1375 92.0625 406.94375 98.36875 404.96875 104.21875 C 402.69375 110.66875 396.86875 115.21875 390.59375 117.46875 C 383.33125 118.55625 375.71875 117.75625 369.15625 114.34375 C 365.39375 111.03125 362.01875 106.90625 360.96875 101.90625 C 359.95625 97.10625 360.25 92.175 360.0625 87.3125 C 357.95 83.5 355.125 79.75 351 78 C 346.4125 76.0125 341.2 76.53125 336.5 77.78125 C 332.4125 79.30625 329.51875 82.80625 327.03125 86.21875 C 326.39375 97.78125 325.33125 110.1875 330.59375 120.9375 C 334.84375 130.625 342.8375 138.84375 352.875 142.46875 C 356.125 144.58125 359.99375 145.375 363.65625 146.5 C 374.91875 149.3875 386.85625 150.05 398.28125 147.625 C 412.55625 145.0125 427.175 137.98125 434.3125 124.71875 C 441.4375 113.16875 440.08125 99.08125 439.53125 86.15625 C 436.00391 80.496094 429.8988 76.330215 423.125 76.59375 z M 341.6875 87.90625 C 343.2625 88.34375 344.83125 88.76875 346.40625 89.21875 C 346.40625 90.84375 346.3875 92.4875 346.375 94.125 C 344.8375 94.4625 343.30625 94.76875 341.78125 95.09375 C 339.74375 92.90625 340.4875 90.29375 341.6875 87.90625 z "
     transform="scale(0.8,0.8)"
     id="path3444" />
  <path
     d="m 273.42523,76.087136 c -1.63,-1.75 -1.04,-3.85 -0.08,-5.76 1.26,0.35 2.52,0.69 3.78,1.05 0,1.3 -0.01,2.61 -0.02,3.92 -1.23,0.27 -2.46,0.53 -3.68,0.79 z"
     id="path3450"
     inkscape:connector-curvature="0"
     style="fill:#08060c" />
  <path
     d="m 335.68523,74.977136 c -0.06,-2.15 0.91,-3.98 2.73,-5.14 1.59,1.23 2.6,2.87 2.76,4.89 -0.69,0.39 -2.07,1.16 -2.76,1.54 -0.68,-0.32 -2.05,-0.97 -2.73,-1.29 z"
     id="path3452"
     inkscape:connector-curvature="0"
     style="fill:#06080c" />
  <path
     d="m 120.01523,100.35714 c 1.59,0.22 3.69,-0.600004 4.82,0.91 0.16,1.33 0.13,2.67 0.15,4.01 -1.7,0.01 -3.39,-0.01 -5.08,-0.05 0,-1.62 0.03,-3.25 0.11,-4.87 z"
     id="path3456"
     inkscape:connector-curvature="0"
     style="fill:#0e060f" />
  <path
     d="m 231.06523,101.31714 c 1.57,-0.02 3.15,-0.03 4.74,-0.02 0.1,1.5 0.18,3 0.27,4.5 -1.76,0.25 -3.52,0.25 -5.26,-0.02 0.07,-1.49 0.15,-2.97 0.25,-4.46 z"
     id="path3458"
     inkscape:connector-curvature="0"
     style="fill:#09090c" />
  <path
     d="m 270.33523,155.68714 c 8.08,-8.85 20.47,-12.94 32.28,-12.06 -3.91,2.15 -7.91,5.14 -8.65,9.88 -0.07,2.03 -0.01,4.07 0.16,6.1 0.52,2.77 0.62,6.6 3.65,7.88 4.87,1.19 10.07,0.13 14.87,1.84 -6.43,0.27 -14.46,-2.14 -19.39,3.28 -3.89,3.51 -4.45,9.46 -2.78,14.19 1.69,3.97 5.61,6.26 9.16,8.35 -1.89,1.71 -3.83,3.38 -5.64,5.17 -3.39,5.86 -2.88,14.14 2.62,18.55 5.87,1.65 12.01,0.97 18,1.65 -9.99,-0.68 -20.45,1.12 -29.95,-2.88 -8.94,-3.15 -16.44,-9.91 -20.37,-18.54 -6.01,-14.07 -4.14,-31.73 6.04,-43.41 z"
     id="path3462"
     inkscape:connector-curvature="0"
     style="fill:#95ce70" />
  <path
     style="fill:url(#linearGradient3233);fill-opacity:1"
     d="m 378.48687,179.53125 c -8.03893,1.96369 -10.40829,7.38642 -11.84059,10.39039 -1.43229,3.00397 -1.16957,6.36893 -0.73777,9.37274 0.4318,3.00381 1.35758,7.26718 6.10462,10.04937 4.74704,2.78219 12.37905,1.83243 18.79937,2.3125 6.42032,0.48007 10.83702,6.72432 14.0625,11.28125 3.22548,4.55693 7.69362,4.31252 12.84375,3.65625 5.15013,-0.65627 11.08645,-4.77207 13.03125,-10.21875 1.9448,-5.44668 0.11457,-12.28681 -2.40625,-16.28125 -2.52082,-3.99444 -5.70652,-9.04545 -14.38817,-14.01542 -8.68164,-4.96997 -27.42978,-8.51077 -35.46871,-6.54708 z m 2.01313,12.125 c 1.76503,-0.15614 3.37132,0.21739 3.90625,1.90625 0.53493,1.68886 0.97571,5.12746 -1.21875,6.09375 -2.19446,0.96629 -6.67902,-1.39796 -7.0625,-3.75 -0.38348,-2.35204 2.60997,-4.09386 4.375,-4.25 z"
     transform="scale(0.8,0.8)"
     id="path3464"
     inkscape:connector-curvature="0"
     sodipodi:nodetypes="zzzzzzzzzzzzzzzz" />
  <rect
     ry="14.215144"
     rx="12.436175"
     y="146.79149"
     x="113.63999"
     height="124.33457"
     width="27.933954"
     id="rect3167"
     style="fill:url(#linearGradient3169);fill-opacity:1;stroke:none;stroke-width:1.00219320999999995;stroke-linecap:butt;stroke-linejoin:bevel;stroke-miterlimit:4;stroke-opacity:1;stroke-dasharray:none" />
  <rect
     ry="3.128722"
     rx="12.659105"
     y="-203.55916"
     x="146.24516"
     height="30.579441"
     width="28.434696"
     id="rect3216"
     style="fill:#7c277c;fill-opacity:1;stroke:#cccccc;stroke-width:0.50145083999999995;stroke-linecap:butt;stroke-linejoin:bevel;stroke-miterlimit:4;stroke-opacity:1;stroke-dasharray:none"
     transform="matrix(0,1,-1,0,0,0)" />
  <rect
     transform="matrix(0,1,-1,0,0,0)"
     style="fill:#7c277c;fill-opacity:1;stroke:#cccccc;stroke-width:0.50145084;stroke-linecap:butt;stroke-linejoin:bevel;stroke-miterlimit:4;stroke-opacity:1;stroke-dasharray:none"
     id="rect3220"
     width="28.434696"
     height="30.579441"
     x="241.99225"
     y="-203.55916"
     rx="12.659105"
     ry="3.128722" />
  <rect
     style="fill:url(#linearGradient3186);fill-opacity:1;stroke:none;stroke-width:1.00219320999999995;stroke-linecap:butt;stroke-linejoin:bevel;stroke-miterlimit:4;stroke-opacity:1;stroke-dasharray:none"
     id="rect3184"
     width="27.933954"
     height="124.33457"
     x="159.69556"
     y="145.88985"
     rx="12.436175"
     ry="12.721236" />
  <path
     style="fill:url(#linearGradient3214);fill-opacity:1;stroke:none;stroke-width:0.88891953000000001;stroke-linecap:butt;stroke-linejoin:bevel;stroke-miterlimit:4;stroke-opacity:1;stroke-dasharray:none"
     d="m 267.12899,182.9375 c -10.0693,0.10568 -15.66024,0 -15.66024,0 -8.70039,0 -15.6875,7.01697 -15.6875,15.71875 l 0,3.875 c 0,8.70178 7.27987,16.36416 18.79981,15.99873 11.51993,-0.36543 26.61493,-0.84898 26.80074,40.52798 0.20542,45.74125 -13.92607,43.22456 -29.53805,43.53579 -8.70039,0 -15.71875,6.98572 -15.71875,15.6875 l 0,3.875 c 0,8.70178 7.01836,15.71875 15.71875,15.71875 l 15.59647,0 c 29.28362,1.04829 43.93958,-27.93446 45.90226,-52.28947 0,0 1.70733,-39.26529 0.62246,-48.43629 -1.08487,-9.17101 -8.13343,-53.69496 -46.83595,-54.21174 z"
     id="rect3201"
     inkscape:connector-curvature="0"
     sodipodi:nodetypes="cssszscssscczc"
     transform="scale(0.8,0.8)" />
  <rect
     style="fill:url(#linearGradient3149);fill-opacity:1;stroke:none;stroke-width:0.87311225999999986;stroke-linecap:butt;stroke-linejoin:bevel;stroke-miterlimit:4;stroke-opacity:1;stroke-dasharray:none"
     id="rect3147"
     width="28.221272"
     height="101.77236"
     x="-170.72005"
     y="132.95627"
     rx="12.753036"
     ry="12.867827"
     transform="matrix(0.59054118,-0.8070075,0.8070075,0.59054118,0,0)" />
  <rect
     transform="matrix(-0.57358083,-0.81914897,0.81914897,-0.57358083,0,0)"
     ry="12.867827"
     rx="12.753036"
     y="-110.00669"
     x="-194.45238"
     height="101.77236"
     width="28.221272"
     id="rect3157"
     style="fill:url(#linearGradient3159);fill-opacity:1;stroke:none;stroke-width:0.87311225999999986;stroke-linecap:butt;stroke-linejoin:bevel;stroke-miterlimit:4;stroke-opacity:1;stroke-dasharray:none" />
  <path
     d="m 300.90523,156.71714 c 1.09,-1.19 1.97,-2.72 3.5,-3.4 1.07,0.45 2.11,0.96 3.13,1.54 -0.32,1.63 -0.65,3.25 -0.98,4.88 -2.1,-0.56 -4.11,-1.45 -5.65,-3.02 z"
     id="path3508"
     inkscape:connector-curvature="0"
     style="fill:#070502" />
  <path
     d="m 125.66523,162.32714 c -0.69,-2.49 -0.24,-4.94 1.37,-6.97 1.2,0.91 2.43,1.77 3.66,2.65 -0.13,1.11 -0.26,2.21 -0.39,3.32 -1.55,0.33 -3.09,0.67 -4.64,1 z"
     id="path3510"
     inkscape:connector-curvature="0"
     style="fill:#070606" />
  <path
     d="m 171.31523,157.75714 c 1.47,-0.38 2.94,-0.74 4.42,-1.1 0.67,2.03 0.78,4.21 0.07,6.25 -1.6,-0.38 -3.2,-0.75 -4.79,-1.14 0.05,-1.35 0.15,-2.68 0.3,-4.01 z"
     id="path3514"
     inkscape:connector-curvature="0"
     style="fill:#040a08" />
  <path
     d="m 196.81523,157.16714 c 1.37,0.01 2.78,-0.17 4.13,0.19 1.87,1.16 0.61,3.57 0.59,5.28 -1.59,-0.3 -3.9,0.53 -4.75,-1.31 -0.15,-1.39 -0.03,-2.78 0.03,-4.16 z"
     id="path3516"
     inkscape:connector-curvature="0"
     style="fill:#020b09" />
  <path
     style="fill:url(#linearGradient3248);fill-opacity:1"
     d="m 387.15625,243.8125 c -4.28457,-0.009 -8.54375,0.125 -12.625,0.125 -2.3625,2.1375 -4.69191,1.65363 -8.27617,7.71367 -3.58426,6.06004 -4.21621,13.94024 4.52617,21.94258 7.3375,2.0625 16.92413,0.99384 22.5,2.0625 5.57587,1.06866 6.05688,2.06307 9.4375,6.0625 3.38062,3.99943 2.86157,14.78506 0.25,18.90625 -2.61157,4.12119 -3.96048,4.31149 -7.15625,5.90625 -3.19577,1.59476 -7.56875,1.6625 -11.40625,1.75 1.675,1.55 3.3625,3.09375 4.9375,4.78125 2.0125,5.5125 2.5375,11.7625 0.625,17.375 -1.4625,3.975 -5.10625,6.53125 -8.40625,8.90625 6.7375,0.225 13.7835,-0.38352 23.28593,-2.27373 9.50243,-1.89021 24.32655,-10.47624 29.18282,-18.85127 4.85627,-8.37503 4.96422,-10.59477 5.9375,-17.09375 0.97328,-6.49898 0.92552,-14.92895 -0.4375,-20.96875 -1.36302,-6.0398 -3.03975,-10.68148 -5.90625,-15 -2.8665,-4.31852 -3.30428,-5.60521 -10.78125,-11 -7.47697,-5.39479 -22.83379,-10.31563 -35.6875,-10.34375 z m -9.34375,12.0625 c 1.3957,-0.20801 2.9625,0.99688 4.3125,1.4375 -0.5625,2.1 -1.16875,4.2125 -1.78125,6.3125 -2.2375,-0.8625 -4.46875,-1.74375 -6.65625,-2.71875 0.8875,-1.45 1.725,-2.925 2.8125,-4.25 0.41875,-0.4625 0.84727,-0.71191 1.3125,-0.78125 z"
     transform="scale(0.8,0.8)"
     id="path3526"
     inkscape:connector-curvature="0"
     sodipodi:nodetypes="sczczzzzcccczzzzzzssccccs" />
  <path
     d="m 301.19523,205.31714 c 1.34,-1.48 3.06,0.07 4.5,0.54 -0.45,1.68 -0.92,3.36 -1.41,5.04 -1.79,-0.69 -3.59,-1.38 -5.34,-2.16 0.71,-1.16 1.38,-2.36 2.25,-3.42 z"
     id="path3532"
     inkscape:connector-curvature="0"
     style="fill:#010a04" />
  <rect
     ry="12.744637"
     rx="12.050541"
     y="146.47806"
     x="2.773761"
     height="124.56331"
     width="27.067751"
     id="rect3137"
     style="fill:url(#linearGradient3139);fill-opacity:1;stroke:none;stroke-width:0.98743932999999995;stroke-linecap:butt;stroke-linejoin:bevel;stroke-miterlimit:4;stroke-opacity:1;stroke-dasharray:none" />
  <path
     style="fill:url(#linearGradient3263);fill-opacity:1"
     d="m 336.34297,291.78379 c -4.75274,1.88495 -6.00147,3.83124 -7.84551,8.22763 -1.84403,4.3964 -2.49263,10.99112 0.0963,16.14483 3.22024,6.32145 9.94988,15.57495 19.625,19.5625 9.67512,3.98755 25.85598,4.97876 33.34375,3.625 7.48777,-1.35376 8.89724,-5.66831 10.58486,-10.4624 1.68762,-4.79409 1.50951,-9.66975 -0.31377,-13.32901 -1.82328,-3.65926 -4.11527,-6.40823 -7.42734,-7.27109 -3.31207,-0.86286 -9.41238,0.24376 -13.6875,-0.28125 -4.27512,-0.52501 -7.81426,-1.42985 -11.25,-4 -3.43574,-2.57015 -4.81633,-8.69882 -7.84883,-10.375 -4.96551,-3.70068 -10.52427,-3.72616 -15.277,-1.84121 z m 42.59453,27.87246 c 1.68373,-0.93355 4.17937,-0.006 5.125,1.625 0.94563,1.6312 1.29502,4.76396 -0.59375,5.875 -1.88877,1.11104 -5.86279,0.17691 -6.9375,-1.78125 -1.07471,-1.95816 0.72252,-4.7852 2.40625,-5.71875 z"
     transform="scale(0.8,0.8)"
     id="path3556"
     inkscape:connector-curvature="0"
     sodipodi:nodetypes="zzczzzzzzzczszzzs" />
  <path
     d="m 171.76523,254.54714 c 1.1,-0.02 2.22,-0.07 3.32,0.06 1.04,0.96 1.7,2.24 2.48,3.42 -1.13,0.9 -2.25,1.81 -3.37,2.72 -0.98,-0.66 -1.96,-1.32 -2.94,-1.97 0.19,-1.41 0.36,-2.82 0.51,-4.23 z"
     id="path3574"
     inkscape:connector-curvature="0"
     style="fill:#04060a" />
  <path
     d="m 197.66523,254.77714 c 1.92,-1.77 5.05,0.64 4.34,3.04 0.2,2.48 -3.21,2.34 -4.91,2.59 -0.05,-1.82 -1.36,-4.36 0.57,-5.63 z"
     id="path3576"
     inkscape:connector-curvature="0"
     style="fill:#05060e" />
  <path
     d="m 125.34523,255.58714 c 1.83,0.22 3.67,0.45 5.51,0.67 -0.54,1.97 -1.24,3.9 -1.81,5.87 -1.47,-0.86 -2.93,-1.73 -4.37,-2.61 0.22,-1.32 0.44,-2.62 0.67,-3.93 z"
     id="path3578"
     inkscape:connector-curvature="0"
     style="fill:#050902" />
  <path
     d="m 303.14523,255.71714 c 1.37,0.4 2.75,0.8 4.1,1.3 -0.15,1.57 -0.31,3.13 -0.47,4.71 -1.88,-0.38 -3.75,-0.81 -5.56,-1.42 0.63,-1.54 1.28,-3.07 1.93,-4.59 z"
     id="path3580"
     inkscape:connector-curvature="0"
     style="fill:#0c0506" />
  <path
     sodipodi:type="arc"
     style="fill:#155e74;fill-opacity:1"
     id="path3590"
     sodipodi:cx="227.22108"
     sodipodi:cy="392.51358"
     sodipodi:rx="5.8141589"
     sodipodi:ry="5.5797172"
     d="m 233.03524,392.51358 a 5.8141589,5.5797172 0 1 1 -11.62831,0 5.8141589,5.5797172 0 1 1 11.62831,0 z"
     transform="matrix(0.8,0,0,0.8,-166.58477,-106.23286)" />
  <path
     transform="matrix(0.8,0,0,0.8,-54.127689,-55.555908)"
     sodipodi:type="arc"
     style="fill:#550000;fill-opacity:1"
     id="path3590-3"
     sodipodi:cx="227.22108"
     sodipodi:cy="392.51358"
     sodipodi:rx="5.8141589"
     sodipodi:ry="5.5797172"
     d="m 233.03524,392.51358 a 5.8141589,5.5797172 0 1 1 -11.62831,0 5.8141589,5.5797172 0 1 1 11.62831,0 z" />
  <path
     transform="matrix(0.8,0,0,0.8,-53.827609,-154.95927)"
     sodipodi:type="arc"
     style="fill:#550000;fill-opacity:1"
     id="path3590-5"
     sodipodi:cx="227.22108"
     sodipodi:cy="392.51358"
     sodipodi:rx="5.8141589"
     sodipodi:ry="5.5797172"
     d="m 233.03524,392.51358 a 5.8141589,5.5797172 0 1 1 -11.62831,0 5.8141589,5.5797172 0 1 1 11.62831,0 z" />
  <path
     transform="matrix(0.8,0,0,0.8,-7.9895286,-154.28408)"
     sodipodi:type="arc"
     style="fill:#5e005f;fill-opacity:1"
     id="path3590-2"
     sodipodi:cx="227.22108"
     sodipodi:cy="392.51358"
     sodipodi:rx="5.8141589"
     sodipodi:ry="5.5797172"
     d="m 233.03524,392.51358 a 5.8141589,5.5797172 0 1 1 -11.62831,0 5.8141589,5.5797172 0 1 1 11.62831,0 z" />
  <path
     transform="matrix(0.8,0,0,0.8,17.367711,-154.28408)"
     sodipodi:type="arc"
     style="fill:#5e005f;fill-opacity:1"
     id="path3590-1"
     sodipodi:cx="227.22108"
     sodipodi:cy="392.51358"
     sodipodi:rx="5.8141589"
     sodipodi:ry="5.5797172"
     d="m 233.03524,392.51358 a 5.8141589,5.5797172 0 1 1 -11.62831,0 5.8141589,5.5797172 0 1 1 11.62831,0 z" />
  <path
     transform="matrix(0.8,0,0,0.8,17.442731,-56.456164)"
     sodipodi:type="arc"
     style="fill:#5e005f;fill-opacity:1"
     id="path3590-9"
     sodipodi:cx="227.22108"
     sodipodi:cy="392.51358"
     sodipodi:rx="5.8141589"
     sodipodi:ry="5.5797172"
     d="m 233.03524,392.51358 a 5.8141589,5.5797172 0 1 1 -11.62831,0 5.8141589,5.5797172 0 1 1 11.62831,0 z" />
  <path
     transform="matrix(0.8,0,0,0.8,-7.8394786,-56.2311)"
     sodipodi:type="arc"
     style="fill:#5e005f;fill-opacity:1"
     id="path3590-0"
     sodipodi:cx="227.22108"
     sodipodi:cy="392.51358"
     sodipodi:rx="5.8141589"
     sodipodi:ry="5.5797172"
     d="m 233.03524,392.51358 a 5.8141589,5.5797172 0 1 1 -11.62831,0 5.8141589,5.5797172 0 1 1 11.62831,0 z" />
  <path
     transform="matrix(0.8,0,0,0.8,122.39767,-54.880715)"
     sodipodi:type="arc"
     style="fill:#0c6f3e;fill-opacity:1"
     id="path3590-03"
     sodipodi:cx="227.22108"
     sodipodi:cy="392.51358"
     sodipodi:rx="5.8141589"
     sodipodi:ry="5.5797172"
     d="m 233.03524,392.51358 a 5.8141589,5.5797172 0 1 1 -11.62831,0 5.8141589,5.5797172 0 1 1 11.62831,0 z" />
  <path
     transform="matrix(0.8,0,0,0.8,122.92283,-157.28493)"
     sodipodi:type="arc"
     style="fill:#0c6f3e;fill-opacity:1"
     id="path3590-95"
     sodipodi:cx="227.22108"
     sodipodi:cy="392.51358"
     sodipodi:rx="5.8141589"
     sodipodi:ry="5.5797172"
     d="m 233.03524,392.51358 a 5.8141589,5.5797172 0 1 1 -11.62831,0 5.8141589,5.5797172 0 1 1 11.62831,0 z" />
  <path
     transform="matrix(0.8,0,0,0.8,120.44712,-105.97029)"
     sodipodi:type="arc"
     style="fill:#0c6f3e;fill-opacity:1"
     id="path3590-7"
     sodipodi:cx="227.22108"
     sodipodi:cy="392.51358"
     sodipodi:rx="5.8141589"
     sodipodi:ry="5.5797172"
     d="m 233.03524,392.51358 a 5.8141589,5.5797172 0 1 1 -11.62831,0 5.8141589,5.5797172 0 1 1 11.62831,0 z" />
  <rect
     style="fill:url(#linearGradient3117);fill-opacity:1;stroke:none;stroke-width:0.93250935999999995;stroke-linecap:butt;stroke-linejoin:bevel;stroke-miterlimit:4;stroke-opacity:1;stroke-dasharray:none"
     id="rect3093"
     width="26.28787"
     height="114.38589"
     x="0.45359114"
     y="1.7601141"
     rx="11.70334"
     ry="11.70334" />
  <path
     transform="matrix(0.8,0,0,0.8,-168.47538,-209.95311)"
     sodipodi:type="arc"
     style="fill:#550000;fill-opacity:1"
     id="path3590-57"
     sodipodi:cx="227.22108"
     sodipodi:cy="392.51358"
     sodipodi:rx="5.8141589"
     sodipodi:ry="5.5797172"
     d="m 233.03524,392.51358 a 5.8141589,5.5797172 0 1 1 -11.62831,0 5.8141589,5.5797172 0 1 1 11.62831,0 z" />
  <path
     transform="matrix(0.8,0,0,0.8,-168.74062,-301.24897)"
     sodipodi:type="arc"
     style="fill:#550000;fill-opacity:1"
     id="path3590-4"
     sodipodi:cx="227.22108"
     sodipodi:cy="392.51358"
     sodipodi:rx="5.8141589"
     sodipodi:ry="5.5797172"
     d="m 233.03524,392.51358 a 5.8141589,5.5797172 0 1 1 -11.62831,0 5.8141589,5.5797172 0 1 1 11.62831,0 z" />
  <path
     transform="matrix(0.8,0,0,0.8,-126.5143,-298.91485)"
     sodipodi:type="arc"
     style="fill:#9a1d56;fill-opacity:1"
     id="path3590-07"
     sodipodi:cx="227.22108"
     sodipodi:cy="392.51358"
     sodipodi:rx="5.8141589"
     sodipodi:ry="5.5797172"
     d="m 233.03524,392.51358 a 5.8141589,5.5797172 0 1 1 -11.62831,0 5.8141589,5.5797172 0 1 1 11.62831,0 z" />
  <path
     transform="matrix(0.8,0,0,-0.8,-59.249249,417.00765)"
     sodipodi:type="arc"
     style="fill:#9a1d57;fill-opacity:1"
     id="path3590-91"
     sodipodi:cx="227.22108"
     sodipodi:cy="392.51358"
     sodipodi:rx="5.8141589"
     sodipodi:ry="5.5797172"
     d="m 233.03524,392.51358 a 5.8141589,5.5797172 0 1 1 -11.62831,0 5.8141589,5.5797172 0 1 1 11.62831,0 z" />
  <path
     transform="matrix(0.8,0,0,0.8,-15.116559,-297.34989)"
     sodipodi:type="arc"
     style="fill:#9a1d57;fill-opacity:1"
     id="path3590-8"
     sodipodi:cx="227.22108"
     sodipodi:cy="392.51358"
     sodipodi:rx="5.8141589"
     sodipodi:ry="5.5797172"
     d="m 233.03524,392.51358 a 5.8141589,5.5797172 0 1 1 -11.62831,0 5.8141589,5.5797172 0 1 1 11.62831,0 z" />
  <path
     transform="matrix(0.8,0,0,0.8,51.502441,-209.4248)"
     sodipodi:type="arc"
     style="fill:#9a1d56;fill-opacity:1"
     id="path3590-05"
     sodipodi:cx="227.22108"
     sodipodi:cy="392.51358"
     sodipodi:rx="5.8141589"
     sodipodi:ry="5.5797172"
     d="m 233.03524,392.51358 a 5.8141589,5.5797172 0 1 1 -11.62831,0 5.8141589,5.5797172 0 1 1 11.62831,0 z" />
  <path
     transform="matrix(0.8,0,0,0.8,93.214351,-240.78375)"
     sodipodi:type="arc"
     style="fill:#908c32;fill-opacity:1"
     id="path3590-50"
     sodipodi:cx="227.22108"
     sodipodi:cy="392.51358"
     sodipodi:rx="5.8141589"
     sodipodi:ry="5.5797172"
     d="m 233.03524,392.51358 a 5.8141589,5.5797172 0 1 1 -11.62831,0 5.8141589,5.5797172 0 1 1 11.62831,0 z" />
  <path
     transform="matrix(0.8,0,0,0.8,93.064301,-265.69086)"
     sodipodi:type="arc"
     style="fill:#908c32;fill-opacity:1"
     id="path3590-38"
     sodipodi:cx="227.22108"
     sodipodi:cy="392.51358"
     sodipodi:rx="5.8141589"
     sodipodi:ry="5.5797172"
     d="m 233.03524,392.51358 a 5.8141589,5.5797172 0 1 1 -11.62831,0 5.8141589,5.5797172 0 1 1 11.62831,0 z" />
  <path
     transform="matrix(0.8,0,0,0.8,156.53241,-265.8409)"
     sodipodi:type="arc"
     style="fill:#908c32;fill-opacity:1"
     id="path3590-75"
     sodipodi:cx="227.22108"
     sodipodi:cy="392.51358"
     sodipodi:rx="5.8141589"
     sodipodi:ry="5.5797172"
     d="m 233.03524,392.51358 a 5.8141589,5.5797172 0 1 1 -11.62831,0 5.8141589,5.5797172 0 1 1 11.62831,0 z" />
  <path
     transform="matrix(0.8,0,0,0.8,156.23233,-241.08384)"
     sodipodi:type="arc"
     style="fill:#908c32;fill-opacity:1"
     id="path3590-6"
     sodipodi:cx="227.22108"
     sodipodi:cy="392.51358"
     sodipodi:rx="5.8141589"
     sodipodi:ry="5.5797172"
     d="m 233.03524,392.51358 a 5.8141589,5.5797172 0 1 1 -11.62831,0 5.8141589,5.5797172 0 1 1 11.62831,0 z" />
</svg>
